<svg width="116" height="116" viewBox="0 0 116 116" fill="none" xmlns="http://www.w3.org/2000/svg">
<path d="M8.33331 28.2666C8.33331 22.9799 10.4334 17.9098 14.1717 14.1716C17.9099 10.4334 22.98 8.33325 28.2667 8.33325H88.0667C93.3533 8.33325 98.4234 10.4334 102.162 14.1716C105.9 17.9098 108 22.9799 108 28.2666V88.0666C108 93.3533 105.9 98.4234 102.162 102.162C98.4234 105.9 93.3533 108 88.0667 108H28.2667C22.98 108 17.9099 105.9 14.1717 102.162C10.4334 98.4234 8.33331 93.3533 8.33331 88.0666V28.2666Z" stroke="black" stroke-width="14.95" stroke-linecap="round" stroke-linejoin="round"/>
<path d="M40.7252 53.184C47.6057 53.184 53.1835 47.6062 53.1835 40.7257C53.1835 33.8451 47.6057 28.2673 40.7252 28.2673C33.8446 28.2673 28.2668 33.8451 28.2668 40.7257C28.2668 47.6062 33.8446 53.184 40.7252 53.184Z" stroke="black" stroke-width="14.95" stroke-linecap="round" stroke-linejoin="round"/>
<path d="M70.7548 61.2609L28.2668 108H88.7296C93.8405 108 98.7421 105.969 102.356 102.355C105.97 98.7414 108 93.8399 108 88.729V88.0662C108 85.744 107.128 84.852 105.558 83.1327L85.4755 61.231C84.5395 60.2099 83.401 59.3952 82.1326 58.8388C80.8641 58.2824 79.4937 57.9965 78.1086 57.9993C76.7234 58.0021 75.3541 58.2936 74.088 58.8552C72.8218 59.4167 71.6866 60.2361 70.7548 61.2609Z" stroke="black" stroke-width="14.95" stroke-linecap="round" stroke-linejoin="round"/>
</svg>
